<?xml version="1.0" encoding="UTF-8"?>
<svg id="Layer_1" data-name="Layer 1" xmlns="http://www.w3.org/2000/svg" viewBox="0 0 128 128">
  <defs>
    <style>
      .cls-1 {
        fill: #004682;
      }

      .cls-2 {
        fill: #fff;
      }
    </style>
  </defs>
  <rect class="cls-1" x=".1" y=".26" width="128" height="128"/>
  <g>
    <path class="cls-2" d="M94.04,29.21c6.63-.7,11.47,5.05,10.63,11.48,6.67,1.01,9.67,8.93,6.3,14.57,6.32,5.21,4.49,15.72-3.85,17.37,3.46,6.92-1.44,16.15-9.14,16.91-2.09.21-8.08-1.11-7.66,2.2.37,2.86,2.86,7.7,3.71,10.76,1.15,4.18.13,8.99-4.85,9.62-5.29.68-6.16-3.72-8.81-6.88-2.47-2.95-5.8-5.22-9.27-6.83l1.77-2.86c3.84,1.89,7.47,4.48,10.23,7.78.92,1.11,2.5,4.19,3.22,4.77,2.38,1.95,5.33-.1,4.96-3.12-.41-3.36-3.14-8.31-3.94-11.89-.3-1.33-.29-2.19-.13-3.55-.2-.21-4.86.22-5.81-.06-1.55-.45-1.43-2.96.76-3.22,7.21-.85,21.28,3.38,22.72-7.3.18-1.31-.17-5.79-1.7-6.07-2.1-.39-7.73.91-8.84-.99-.41-.7-.3-1.56.36-2.03,1.22-.87,9.98.35,12.9-.75,4.17-1.57,5.18-7.25,2.14-10.43-1.72-1.81-2.19-.27-4.13-.01-1.55.21-5.45.03-4.34-2.43.65-1.43,3.82-.25,5.84-1.8,5.04-3.88-.22-13.29-5.96-10.05-1.52.86-2.04,3.08-3.92,2.52-2.03-.61-.54-2.94.35-3.9,2.11-2.26,4.32-1.23,3.79-5.16-.46-3.43-4.61-6.84-7.98-4.75-2.41,1.49-1.43,5.43-3.34,5.69-3.13.43-1.61-4.52-.82-6.03,1.04-1.98,2.2-1.52,1.26-4.23-1.86-5.34-9.95-5.36-10.86.08-.25,1.52.9,4.16-.62,4.85-2.89,1.3-2.89-3.93-2.6-5.61.43-2.53,2.27-2.92.27-5.7-3.18-4.41-10.3-2.45-10.5,2.86-.06,1.53,1.26,4.53-1.76,3.94-1.31-.26-1.55-2.81-1.53-3.96.03-1.93.98-2.42-.3-4.32-2.87-4.24-9.82-3.05-10.32,2.14-.15,1.61,1.5,4.71-.99,4.98s-1.91-3.35-2.42-4.57-3.6-2.46-4.91-2.46c-3.43.02-6.93,4.09-5.57,7.47.42,1.03,3.75,3.54.8,4.42-2.61.78-3.54-3.78-4.84-4.47-4.86-2.6-10.19,3.41-7.92,8.47.58,1.3,2.84,2.56,1.59,4.19-1.68,2.2-4.69-2.41-4.97-3.95l-.36-.05c-5.46.55-7.63,7.79-3.4,11.32,1.37,1.14,3.61.76,3.8,2.5.32,3.08-3.42,1.17-4.77,1.18-4.79.01-7.06,8.76-2.74,10.68,1.15.51,5.07.52,3.28,2.98-1.18,1.63-3.19.18-3.65.58-1.4,4.71,1.6,9.44,6.8,8.71-.51-1.59-.59-5.33,1.77-5.21,2.14.11,1.16,2.46,1.22,3.7.05.9.62,1.84.57,2.74-.05.95-.95,2.53-.84,3.68l-1.55-1.64c-7.23,1.01-12.38-4.04-11.51-11.29.08-.65.7-1.99.69-2.21,0-.19-1.54-2.43-1.82-3.26-1.68-4.97.58-9.99,5.19-12.29-4.54-5.9-.63-14.83,6.78-15.47.7-6.32,6.31-10.72,12.6-8.68,1.44-6.58,9.08-9.52,14.58-5.46,3.93-6.02,11.49-6.16,15.88-.56,5.15-4.44,12.02-2.61,15,3.26,5.9-2.71,12.43.73,13.51,7.1Z"/>
    <path class="cls-2" d="M68.54,86.63c1.58,1.57,1.65,7.22.6,9.01s-3.47,1.78-3.78,2.29l-1,2.66c1.22,1.66,1.73,3.44.57,5.31-.38.62-3.85,3.96-4.49,4.24-2.71,1.17-3.71-.84-4.77-.86-.15,0-2.27.88-2.43,1.02-1,.86-.49,3.07-2.83,4-1.41.56-5.81.56-7.22,0-2.32-.92-1.77-2.9-2.67-3.88-.15-.16-2.17-1.05-2.44-1.1-.56-.1-1.1.61-1.66.82-1.32.5-2.57.48-3.81-.28-.62-.38-3.96-3.85-4.24-4.49-.21-.5-.44-1.47-.4-2.02.07-1.02,1.24-2.45,1.26-2.76,0-.15-.96-2.69-1.06-2.8-.52-.58-2.76-.29-3.81-2.33-.67-1.31-.73-5.83-.28-7.21.87-2.69,3.07-2.09,4.02-3.08.09-.1,1.07-2.29,1.1-2.43.09-.48-1.21-1.97-1.25-3.17-.06-2.05,3.83-6.31,5.73-6.82,2.46-.66,2.99.88,4.26.96.28.02,2.39-.8,2.57-.96.58-.49.25-2.49,2.09-3.64,1.31-.81,6.2-.86,7.66-.38,2.47.81,1.89,2.81,2.67,3.88.07.1,2.05,1.01,2.25,1.05,1.37.24,2.28-1.7,4.91-.84,1.54.51,5.1,4.25,5.41,5.78.47,2.29-1.14,3.15-1.15,3.97,0,.13.94,2.32,1.02,2.43.5.67,2.31.77,3.16,1.62ZM50.13,75.29l-.86-3.36c-.26-.18-4.01-.22-4.52-.12-1.16.22-.73,2.74-1.4,3.58-1.74-.07-4.73,2.5-6.09,2.02-.67-.24-1.96-1.76-2.74-1.38l-3.24,3.33c-.12.6,1.28,1.88,1.48,2.55.4,1.35-1.97,4.29-1.94,6-.92,1.03-3.38.28-3.67,1.79-.1.53-.08,3.93.12,4.23l3.45,1.19c.39,1.23.8,2.43,1.29,3.62.35.87,1.11,1.27.82,2.33-.2.74-1.82,2.09-1.46,2.93.08.2,2.87,2.91,3.08,2.97,1.16.32,2.74-1.62,3.44-1.55.39.03,1.33.87,1.9,1.1.85.34,3.35.91,3.69,1.49.56.96.16,3.1,1.55,3.36.58.11,3.52.09,3.95-.13.87-.43.64-2.94,1.37-3.55.86-.72,4.17-.92,5.18-2.22,1.03-.28,2.45,2.18,3.97,1.28.25-.15,2.77-2.72,2.81-2.92l-1.62-3.24,2.08-5.31c.6-1.05,3.43-.5,3.68-1.78.11-.56.07-3.81-.14-4.24-.64-.91-2.72-.5-3.42-1.22-.3-.31-.69-2.21-.96-2.87-.42-1.05-1.45-2.15-1.11-3.29.26-.86,1.89-1.95,1.27-2.86-.22-.32-2.98-3.05-3.2-3.09l-3.21,1.6c-.71-.69-5.36-2.02-5.56-2.25Z"/>
    <path class="cls-2" d="M77.97,39.54c.75.77,3.36-.71,5.28.05.87.34,3.84,3.48,4.08,4.38.52,1.96-.65,2.95-.55,3.85.15,1.35,1.68,1.26,2.58,2.04,1.86,1.63,1.84,6.59.29,8.45-.96,1.15-2.67.88-2.89,2.32-.17,1.11,1.56,2.07.22,4.56-.32.59-2.77,3.1-3.34,3.48-2.5,1.63-3.39-.27-4.7-.08-1.54.23-1.37,3.42-4.42,3.78-2.05.25-5.1.29-6.42-1.51-.78-1.06-.43-2.52-2.26-2.27-1.43.2-1.62,1.27-3.75.35-.96-.41-3.98-3.52-4.24-4.49-.53-2,.71-2.99.58-3.83-.22-1.42-1.81-1.17-2.77-2.17-1.43-1.5-1.42-6.97.04-8.45.92-.93,2.55-.82,2.7-2.19.09-.8-.98-1.88-.62-3.64.23-1.12,3.15-4.12,4.19-4.54,2.18-.88,3.69.6,4.96.07.71-.3.61-2.8,3.12-3.46,2.05-.53,5.87-.51,7.17,1.46.36.54.5,1.57.76,1.83ZM87.12,56.19c.45-.38.48-2.94.21-3.49-.42-.83-2.33-.54-2.74-1.08-.21-.28-.26-1.22-.47-1.72-.81-1.93-1.78-2.54.02-4.49.19-.77-1.75-2.19-2.34-2.76-.85-.22-1.6,1.12-2.65,1.05-.2-.01-3.53-1.39-3.7-1.51-1.05-.72-.33-2.63-1.51-2.86-.44-.09-2.89-.06-3.16.12-.52.69-.27,2.05-.92,2.63-.15.13-3.44,1.54-3.64,1.57-1.45.25-1.95-1.54-3.22-.79-.2.12-1.97,1.97-2.01,2.12-.16.81,1.23,1.72,1.24,2.4,0,.32-.98,1.97-1.21,2.52-.21.5-.26,1.44-.47,1.72-.49.65-2.37.07-2.6,1.22-.07.37-.08,3.26.03,3.39,3.32-.1,2.74,2.52,4.21,4.65l-1.2,2.13c-.19.8,1.97,2.36,2.55,3.01.68-.16,1.57-1.27,2.18-1.29.32,0,4.3,1.79,4.45,2.09.36.76,0,2.07,1.01,2.26.44.09,2.89.06,3.16-.12.51-.63.27-1.93.8-2.47s3.25-.99,4.03-1.73l2.53,1.2,2.42-2.52c.19-.76-1.23-1.72-1.24-2.4,0-.21,1.57-3.77,1.69-3.95.57-.82,1.69-.51,2.52-.89Z"/>
    <path class="cls-2" d="M45.09,80.88c15.3-2.1,16.5,21.29,1.83,21.5-13.09.19-14.54-19.75-1.83-21.5ZM45.92,84.16c-9.07,1.02-8.27,14.96.97,14.83,10.14-.14,9.24-15.97-.97-14.83Z"/>
    <path class="cls-2" d="M72.13,46.76c9.79-.69,10.55,14.61.74,14.96s-10.32-14.29-.74-14.96ZM71.28,50.3c-4.28.96-3.27,8.78,1.78,8.08,5.48-.77,4.49-9.48-1.78-8.08Z"/>
  </g>
</svg>