<?xml version="1.0" encoding="UTF-8"?>
<svg id="Layer_1" data-name="Layer 1" xmlns="http://www.w3.org/2000/svg" viewBox="0 0 320 320">
  <defs>
    <style>
      .cls-1 {
        fill: #39b54a;
      }
    </style>
  </defs>
  <rect class="cls-1" y="0" width="320" height="320"/>
  <g>
    <path d="M165.51,208.54c2.69-1.28,5.71-1.81,8.75-1.46,4.8.55,9.06,3.19,11.68,7.24l1.92,2.95c-.13-1.62-.2-3.24-.16-4.87.18-9.48,3.11-18.82,8.47-26.74,3.59-5.28,8.24-9.94,13.96-13.65,8.59-5.56,18.15-8.08,27.65-7.91,9.48.18,18.81,3.11,26.74,8.47.58.41,1.16.82,1.73,1.24,1.49-4.81,4.59-9.15,9.14-12.09,2.39-1.55,4.98-2.57,7.62-3.1-5.52-4.65-11.63-8.4-18.11-11.15-12.67-5.38-26.75-7.05-40.49-4.62-9.15,1.61-18.17,5.06-26.43,10.42-12.4,8.03-21.55,19.33-26.92,32-3.15,7.4-5.01,15.26-5.55,23.27Z"/>
    <path d="M235.99,262.47c-9.48-.18-18.83-3.1-26.74-8.47-5.29-3.58-9.94-8.23-13.65-13.96l-14.59-22.52c-1.66-2.57-4.38-4.25-7.42-4.6s-6.06.68-8.26,2.81l-15.96,14.17c-3.52,3.4-4.14,8.81-1.48,12.91l12.84,19.83,12.85,19.83c2.66,4.1,7.85,5.75,12.39,3.92l19.46-8.8.08-.02c1.11.54,2.23,1.06,3.36,1.54,12.69,5.38,26.75,7.06,40.49,4.64,9.16-1.62,18.16-5.07,26.43-10.42,12.4-8.03,21.55-19.34,26.93-32.01,5.38-12.69,7.06-26.75,4.63-40.5-.88-5-2.33-9.96-4.33-14.77,1.68-4.68,1.25-10.04-1.65-14.53-4.95-7.64-15.14-9.81-22.77-4.86-7.63,4.94-9.81,15.13-4.87,22.77,2.26,3.48,5.63,5.82,9.32,6.86,2.15,5.82,3.14,11.87,3.02,17.89-.18,9.48-3.11,18.82-8.47,26.74-3.59,5.28-8.24,9.94-13.96,13.65-8.59,5.56-18.16,8.09-27.64,7.91ZM183.38,255.38c-2.48,1.62-5.6,1.46-7.88-.14l-6.36,4.11-2.87-4.44,6.35-4.12c-.52-2.73.61-5.64,3.08-7.26,3.28-2.11,7.65-1.19,9.77,2.08,2.11,3.28,1.18,7.64-2.09,9.76ZM291.37,186.39c-3.27,2.12-7.64,1.19-9.76-2.09-2.12-3.27-1.18-7.64,2.09-9.76s7.64-1.19,9.75,2.08c2.12,3.28,1.19,7.65-2.08,9.77Z"/>
    <path d="M162.73,63.93c5.24,8,8,17.4,8.01,26.88.02,9.49-2.68,19.01-8.37,27.5-3.81,5.66-8.55,10.24-13.89,13.73-8,5.24-17.4,8-26.88,8.02-1.62,0-3.23-.08-4.85-.24l2.91,1.96c4,2.7,6.57,7,7.03,11.8.29,3.04-.28,6.05-1.61,8.71,8.01-.39,15.91-2.13,23.36-5.14,12.76-5.16,24.22-14.11,32.46-26.37,5.51-8.17,9.1-17.12,10.88-26.25,2.66-13.7,1.22-27.79-3.94-40.55-2.64-6.53-6.27-12.71-10.83-18.3-.59,2.63-1.64,5.2-3.24,7.57-3.03,4.49-7.41,7.52-12.26,8.93.42.58.82,1.16,1.22,1.75Z"/>
    <path d="M62.19,50.94c-5.5,8.18-9.1,17.12-10.87,26.24-2.66,13.7-1.23,27.8,3.93,40.56.46,1.15.97,2.28,1.49,3.39l-.04.08-9.12,19.31c-1.9,4.5-.34,9.71,3.72,12.44l19.6,13.18,19.6,13.18c4.06,2.73,9.48,2.2,12.93-1.25l14.44-15.72c2.16-2.17,3.24-5.18,2.94-8.22s-1.93-5.78-4.47-7.49l-22.27-14.98c-5.66-3.81-10.24-8.55-13.73-13.89-5.23-8.01-7.99-17.4-8.02-26.88,0-9.49,2.69-19.01,8.38-27.5,3.82-5.65,8.55-10.25,13.89-13.73,8-5.24,17.4-8,26.88-8.02,6.03,0,12.06,1.08,17.85,3.33.98,3.73,3.25,7.13,6.7,9.45,7.55,5.08,17.78,3.08,22.85-4.47,5.07-7.55,3.07-17.77-4.48-22.85-4.44-2.99-9.79-3.5-14.5-1.91-4.78-2.07-9.7-3.6-14.7-4.57-13.69-2.67-27.79-1.23-40.56,3.93-12.76,5.15-24.23,14.1-32.46,26.37ZM88.32,141.71c3.25,2.18,4.1,6.56,1.92,9.79-1.65,2.46-4.57,3.54-7.31,2.96l-4.22,6.28-4.39-2.95,4.23-6.28c-1.57-2.32-1.66-5.43-.02-7.89,2.18-3.23,6.56-4.09,9.79-1.92ZM159.17,34.92c3.24,2.17,4.09,6.55,1.92,9.8-2.17,3.23-6.55,4.08-9.79,1.91-3.23-2.18-4.09-6.56-1.92-9.8,2.17-3.23,6.56-4.09,9.79-1.91Z"/>
    <path d="M69.45,267.13c-2.27.8-4.33,2.13-6.02,3.85l-5.48-6.79c1.35-.92,2.58-2.03,3.59-3.32,1.99-2.54,3.21-5.76,3.31-9.22l.34-12.36c.08-2.57-.49-5.04-1.54-7.23s-2.59-4.08-4.48-5.56c-1.25-.98-2.65-1.76-4.17-2.33l.8-6.8c1.6.04,3.18-.14,4.7-.54,3.38-.91,6.46-2.89,8.69-5.75.89-1.14,1.64-2.42,2.22-3.8l5.1-12.22c1.45-3.48,1.61-7.22.69-10.6-.91-3.38-2.89-6.46-5.74-8.69-1.14-.89-2.42-1.64-3.8-2.22h0c-3.47-1.46-7.21-1.62-10.6-.71-3.38.91-6.46,2.9-8.68,5.75-.89,1.15-1.64,2.42-2.22,3.81l-5.1,12.22c-1.45,3.47-1.62,7.21-.7,10.59.91,3.39,2.9,6.46,5.76,8.69.19.15.38.28.57.42l-1.1,9.4c-.99.26-1.95.58-2.85,1.02-2.18,1.05-4.07,2.59-5.55,4.49-1.99,2.53-3.21,5.74-3.31,9.2l-.34,12.36c-.07,2.58.49,5.05,1.54,7.23,1.05,2.18,2.59,4.08,4.48,5.56,2.35,1.84,5.27,3.02,8.45,3.26l11.02,13.67c-.2,2.27.08,4.52.81,6.59.99,2.82,2.77,5.32,5.15,7.18,1.65,1.29,3.6,2.27,5.73,2.83l11.99,3.07h0c3.1.8,6.26.62,9.07-.38,2.82-.99,5.32-2.76,7.18-5.15.9-1.15,1.64-2.45,2.2-3.86l11.22-1.1c.99,1.47,2.18,2.74,3.52,3.79,2.5,1.94,5.47,3.11,8.57,3.41,3.1.3,6.35-.29,9.29-1.86l11.69-6.23c2.09-1.11,3.85-2.62,5.23-4.38,1.94-2.5,3.11-5.47,3.41-8.57.3-3.1-.28-6.35-1.86-9.29-1.11-2.09-2.63-3.85-4.39-5.22-2.49-1.94-5.46-3.11-8.56-3.41-3.1-.3-6.35.28-9.29,1.86l-11.69,6.23c-2.08,1.12-3.85,2.63-5.22,4.39-1.94,2.49-3.11,5.46-3.42,8.57-.04.52-.06,1.03-.06,1.55l-7.77.77c-.12-.49-.25-.96-.43-1.43-.98-2.83-2.76-5.32-5.15-7.18-1.65-1.29-3.59-2.28-5.73-2.83l-11.98-3.08c-3.09-.8-6.25-.61-9.07.38ZM58.05,207.74c-1.46.39-3.01.33-4.52-.3-.61-.25-1.15-.58-1.63-.95-1.21-.95-2.07-2.26-2.46-3.72-.39-1.47-.32-3.02.3-4.54l5.09-12.21c.26-.61.58-1.14.96-1.63.94-1.21,2.26-2.07,3.71-2.45,1.46-.39,3.02-.32,4.53.3.6.26,1.14.57,1.63.95,1.21.94,2.07,2.26,2.45,3.71.4,1.47.33,3.03-.3,4.54l-5.09,12.21,4.34,1.82-4.35-1.81c-.26.6-.57,1.15-.95,1.63-.95,1.21-2.26,2.07-3.73,2.45ZM55.44,251.4c-.04,1.4-.52,2.65-1.32,3.67-.59.76-1.35,1.38-2.23,1.79-.25.12-.5.22-.76.3-.99-.27-2.06-.2-3.03.21-1.03-.18-1.97-.6-2.76-1.22s-1.38-1.36-1.8-2.23c-.42-.86-.64-1.83-.62-2.88l.35-12.36c.03-1.41.52-2.65,1.32-3.67.59-.77,1.36-1.38,2.22-1.8.87-.42,1.84-.65,2.89-.62,1.4.04,2.65.52,3.68,1.32.76.59,1.37,1.36,1.79,2.23.42.88.64,1.84.61,2.88l-.34,12.37,4.7.12-4.7-.12ZM122.71,274.31l11.69-6.23c1.27-.68,2.64-.92,3.96-.8s2.62.63,3.68,1.46c.75.59,1.39,1.33,1.87,2.24.69,1.28.93,2.63.8,3.97-.13,1.33-.63,2.62-1.47,3.68-.58.74-1.32,1.39-2.22,1.87l-11.69,6.23c-1.28.69-2.64.92-3.98.8-1.33-.13-2.62-.63-3.67-1.47-.75-.59-1.39-1.32-1.88-2.23-.68-1.28-.92-2.64-.8-3.98.13-1.32.64-2.61,1.47-3.67.59-.75,1.33-1.39,2.24-1.87ZM72.56,276.01c1.14-.4,2.36-.48,3.62-.16l11.98,3.08c.88.23,1.63.61,2.29,1.13.94.74,1.67,1.75,2.06,2.88s.47,2.36.15,3.61c-.22.88-.61,1.64-1.12,2.3-.74.94-1.75,1.67-2.88,2.06-1.13.39-2.36.47-3.61.15h0s-11.97-3.08-11.97-3.08c-.88-.23-1.64-.61-2.3-1.12-.94-.74-1.66-1.75-2.06-2.88-.39-1.13-.47-2.36-.14-3.62.22-.88.61-1.63,1.12-2.29.74-.95,1.75-1.66,2.88-2.06Z"/>
  </g>
</svg>