<?xml version="1.0" encoding="UTF-8"?>
<svg id="Layer_1" data-name="Layer 1" xmlns="http://www.w3.org/2000/svg" viewBox="0 0 320 320">
  <defs>
    <style>
      .cls-1 {
        fill: #29abe2;
      }

      .cls-2 {
        fill: #0d0d0d;
      }
    </style>
  </defs>
  <rect class="cls-1" y="0" width="320" height="320"/>
  <path class="cls-2" d="M12.2,268.37c-3.33-4.52-2.36-10.88,2.16-14.21.09-.07.18-.13.27-.19l64.1-49.89c-5.3-7.67.94-10.29.94-10.29l-5.18-13.72c-4.61-9.54,4.37-18.71,4.37-18.71l55.06-40.59c7.49-5.28,17.84-3.49,23.11,4,.11.16.22.32.33.49l11.1-6.24c-2.56-4.29-1.16-9.84,3.12-12.4.04-.02.08-.05.12-.07l58.87-46.64v-21.45c.69-11.72,6.86-6.86,6.86-6.86l19.64,19.33s42.59-36.1,45.58-38.79,5.67,1.93,5.67,1.93c0,0,2.49,2.93.94,4.68s-40.91,37.41-40.91,37.41l1.12,9.54-3.55,3.93-6.24-6.24-10.66,10.16c1.38,5.27-.06,10.88-3.8,14.84l-46.14,48.45c-8.42,7.05-12.47,1.93-12.47,1.93l-9.35,10.04c-3.93,5.86,13.41,20.64,13.41,20.64l-1.56,4.24c13.61,13.81,29.47,25.22,46.89,33.74l-20.7,31.62c-16.19-6.81-30.8-16.89-42.9-29.62l-17.65,9.85c-15.71,11.66-12.85,19.27-12.85,19.27l2.93,21.26c10.6,4.93,1.93,9.54,1.93,9.54l-16.4,7.48c-10.85,6.86-10.6-1.81-10.6-1.81l-1.37-41.78c-6.61-15.03-16.46-7.61-16.46-7.61-11.76,10.36-22.23,22.11-31.18,34.98l-3.3,36.6c-6.24,17.9-17.09,9.48-17.09,9.48l-26.94-27.06-11.22-11.29Z"/>
</svg>