<?xml version="1.0" encoding="UTF-8"?>
<svg id="Layer_5" data-name="Layer 5" xmlns="http://www.w3.org/2000/svg" viewBox="0 0 320 320">
  <defs>
    <style>
      .cls-1 {
        fill: #fff;
      }
    </style>
  </defs>
  <path d="M154.07,41.66c20.28-1.58,38.05,3.47,53.79,16.26,28.17,22.88,33.47,65.37,9.02,93.1-13.7,15.53-34.98,21.08-36.8,45.73-.22,2.98.66,15.05-.46,16.47-.34.44-.85.66-1.39.73-11.09-.72-23.46,1.01-34.4.04-1.69-.15-3.46-.28-3.44-2.38-.19-22.45-2.48-40.71,13.77-58.24,12.46-13.44,33.07-18.74,36.45-39.2,5.12-30.97-33.94-49.09-53.64-25.07-6.87,8.38-5.8,13.7-6.61,23.54-2.48,30.23-43.26,26.27-41.28-9.01,1.88-33.52,32.68-59.46,64.99-61.98ZM150.52,54.15c1.59,1.12,3.88-1.67,2.1-2.9-2.52-1.74-3.03,2.25-2.1,2.9ZM130.76,56.42c-4.38.98-2.15,7.24,1.35,6.69,4.36-.69,4.01-7.89-1.35-6.69ZM184.72,56.93c-3.51.53-3.07,6.22.41,6.22,4.01,0,3.59-6.83-.41-6.22ZM159.32,58.52c-4.16,1.23-2.08,7.79,1.88,6.71,4.32-1.18,2.25-7.93-1.88-6.71ZM119.26,82.76c-.78-4.93,7.77-8.43,1.33-12.7-5.38-3.56-10.61,3.5-7.34,4.7,2.2.9,1.96-1.71,3.39-2.34,7.56.21-3.49,6.14-.05,10.11l2.68.23ZM204.97,88.58c3.96.52,2.54-1.13,3.46-3.16.43-.96,2.38-2.11,2.76-3.58,2.03-7.83-9.04-9.07-10.9-2.42-.12,1.27,1.45,1.33,2.31,1.28.76-.06,3.16-4.35,5.06-1.83,1.79,2.37-2.07,3.6-2.58,5.85-.28,1.26-.06,2.59-.11,3.86ZM208.08,91.28l-2.61-.36-.5,2.95,2.68-.23.44-2.36ZM111.81,103.87c-.25-3.61,4.1-4.72,3.75-8.1-.55-5.38-9.81-4.34-9.03-.11.46,2.46,5.08-2.57,5.85.08.37,1.26-4.72,5.52-3.17,8.19l2.6-.06ZM215.92,97.69c-1.46.33-3.97,2.78-3.52,4.33l1.31.89c2.1.18,3.35-4.2,5.84-1.09,1.17,2.26-5.99,6.27-2.98,9.82l2.36.17c.76-.21.67-2.87,1.27-4.02.92-1.74,3.4-3.1,3.07-5.46-.52-3.63-3.89-5.42-7.35-4.63ZM203.86,102.91c-.79-1.1-3.65-.11-3.12,1.79.57,2.05,4.56.22,3.12-1.79ZM120.15,104c-2.47.66-.89,3.62.95,3.09,1.3-.37,1.25-3.68-.95-3.09ZM105.33,112.5c-2.31.21-3.23,3.8-1.05,4.56,4.6,1.61,4.32-4.86,1.05-4.56ZM207.02,125.54c-.42-4.11,3.83-4.46,3.21-8.62-.78-5.29-8.64-4.13-8.96.75,3.15,1.98,3.22-3.09,6.34-.24-.95,3.27-4.44,3.74-3.12,8.13h2.53ZM216.93,114.55c-2.18.67-.12,2.98,1.54,3.1l.74-2.31c-.3-.92-1.48-1.04-2.27-.79ZM198.54,129.92c-3.26-2.07-4.74,4.7-.82,3.54,1.58-.47,1.71-2.98.82-3.54ZM201.61,140.01c-3.36.3-3.74,6.34.94,5.72,3.22-.43,2.16-6-.94-5.72ZM183.16,144.22c.62.86-2.93,6.01.38,6.78,1.12-3.38,5.07-8.34-1.31-7.93-.47,1.41.75.9.94,1.15ZM170.1,166.3c1.47,2.01,3.7-1.82,4.53-1.98,5.48,1.49.56,3.76-.45,6.41-.46,1.21-.86,2.71.08,3.86,4.27,1.07,2.3-.99,3.06-2.79,1.17-2.77,5.38-4.02,2.27-8.35-3.76-5.24-11.39.24-9.48,2.86ZM159.47,186.98c-1.29-4.08,4.22-4.94,3.61-8.6-.5-2.99-3.63-4.43-6.39-3.99-4.07.66-4.73,5.65-1.79,5.08,1.02-.2,1.16-1.7,1.5-1.91.69-.41,3.35-.24,3.59.69.49,1.9-6.05,5.16-3.2,8.48l2.68.24ZM176.79,179.43c2.46-2.42-2.51-3.5-3.03-1.69-.44,1.54,1.64,3.06,3.03,1.69ZM166.7,194.5c-3.64.33-2.95,5.89.36,5.6s3.11-5.91-.36-5.6ZM153.4,195.04c-2.08-.17-2.43,3.22-.47,3.54s2.37-3.38.47-3.54Z"/>
  <path d="M160.94,229.45c31.13-.1,30.64,49.92-1.75,48.01-29.76-1.75-28.78-47.92,1.75-48.01Z"/>
  <path d="M93.74,160.11c10.84-1.57,10.66,15.6,0,14.05-7.85-1.14-7.57-12.96,0-14.05Z"/>
  <path d="M119.14,203.48c7.93-1.15,8.89,11.87-.14,11.03-5.99-.55-5.9-10.15.14-11.03Z"/>
  <path d="M241.87,74.4c5.58-.96,9.26,6.67,4.02,9.87-8.09,4.95-11.6-8.56-4.02-9.87Z"/>
  <path d="M134.07,156.83l-7.66,2.11-2.12,8.99c-.93-7.69-1.36-10.27-9.79-10.85,0-.54,5.62-1.12,6.48-1.46,3.08-1.22,2.22-7.18,3.32-9.92.53,0,.99,7.67,2.13,8.99,1.4,1.62,5.67,1.37,7.66,2.13Z"/>
  <path d="M230.02,178.86c-4.57-4.57,3.05-11.69,7.23-6.97s-2.69,11.51-7.23,6.97Z"/>
  <path d="M114.88,172.81c7.91-1.82,9.97,8.87,3.89,10.76-8.81,2.74-10.55-9.23-3.89-10.76ZM116.35,175.05c-5.58,0-2.36,9.65,2.13,5.59,2.43-2.2.74-5.6-2.13-5.59Z"/>
  <path d="M74.7,92.91c3.84-.5,6.73,4.71,3.33,7.61-6,5.11-10.92-6.61-3.33-7.61Z"/>
  <path d="M200.05,34.73c7.36-2.19,8.39,9.13,1.09,8.25-4.78-.57-4.41-7.27-1.09-8.25Z"/>
  <polygon points="158 101.16 164.23 102.86 157.85 104.68 155.77 111.33 154.21 104.68 147.83 102.34 154.18 101.01 155.77 93.34 158 101.16"/>
  <path d="M232.88,146.34c6.2-.79,6.82,8.91.39,8.93-4.78.02-5.97-8.22-.39-8.93ZM234.99,152.46c2.87-2.97-3-6.13-3.58-2.22-.35,2.38,2.27,3.58,3.58,2.22Z"/>
  <path d="M205.35,207.45c-4.39,3.7-10.05-3.08-5.94-6.73,4.63-4.12,10.05,3.27,5.94,6.73ZM201.64,201.87c-2.5.7-1.56,4.9,1.36,4.08,2.5-.7,1.56-4.9-1.36-4.08Z"/>
  <path d="M197.95,221.45c4.51-.82,6.26,6.21,1.88,7.21-6.29,1.44-6.09-6.45-1.88-7.21Z"/>
  <path d="M138.68,28.37c6.11-1.88,5.59,8.61-.24,5.86-2.44-1.15-2-5.17.24-5.86Z"/>
  <path d="M151.93,135.01c-3.81,3.79-8.11-5.37-1.7-4.68,2.39.26,3.11,3.28,1.7,4.68Z"/>
  <path d="M164.57,115.1c4.47-1.5,5.67,4.95.99,4.74-2.85-.13-2.23-4.32-.99-4.74Z"/>
  <path d="M212.42,175.83c.27.43,2.2-.17,2.59.83-.39,1-2.32.41-2.59.83-.35.55.47,2.45-.84,3.12-1.3-.67-.49-2.58-.84-3.12-.27-.43-2.2.17-2.59-.83.54-1.16,1.92.05,2.39-.75.51-.87-.14-2.47,1.04-3.2,1.3.67.49,2.58.84,3.12Z"/>
  <path d="M245.05,133.68c1.71,1.61-1.76,5.14-3.32,2.51-1.64-2.76,1.71-4.03,3.32-2.51Z"/>
  <path class="cls-1" d="M215.92,97.69c3.46-.79,6.83,1,7.35,4.63.34,2.36-2.15,3.73-3.07,5.46-.6,1.14-.51,3.8-1.27,4.02l-2.36-.17c-3.02-3.55,4.14-7.56,2.98-9.82-2.48-3.11-3.74,1.27-5.84,1.09l-1.31-.89c-.45-1.55,2.06-3.99,3.52-4.33Z"/>
  <path class="cls-1" d="M204.97,88.58c.05-1.27-.17-2.6.11-3.86.51-2.25,4.37-3.47,2.58-5.85-1.9-2.52-4.3,1.76-5.06,1.83-.86.04-2.43-.01-2.31-1.28,1.87-6.65,12.94-5.41,10.9,2.42-.38,1.47-2.33,2.63-2.76,3.58-.91,2.03.51,3.68-3.46,3.16Z"/>
  <path class="cls-1" d="M119.26,82.76l-2.68-.23c-3.44-3.96,7.61-9.9.05-10.11-1.43.63-1.19,3.24-3.39,2.34-3.27-1.2,1.96-8.27,7.34-4.7,6.44,4.27-2.1,7.77-1.33,12.7Z"/>
  <path class="cls-1" d="M170.1,166.3c-1.91-2.61,5.71-8.09,9.48-2.86,3.11,4.33-1.09,5.58-2.27,8.35-.76,1.8,1.21,3.86-3.06,2.79-.94-1.14-.54-2.64-.08-3.86,1.02-2.66,5.93-4.92.45-6.41-.82.16-3.06,4-4.53,1.98Z"/>
  <path class="cls-1" d="M159.47,186.98l-2.68-.24c-2.85-3.32,3.69-6.58,3.2-8.48-.24-.94-2.91-1.1-3.59-.69-.35.21-.49,1.71-1.5,1.91-2.94.57-2.27-4.42,1.79-5.08,2.76-.45,5.89,1,6.39,3.99.61,3.66-4.9,4.52-3.61,8.6Z"/>
  <path class="cls-1" d="M207.02,125.54h-2.53c-1.33-4.37,2.17-4.84,3.12-8.11-3.12-2.86-3.19,2.22-6.34.24.32-4.87,8.18-6.04,8.96-.75.62,4.16-3.64,4.51-3.21,8.62Z"/>
  <path class="cls-1" d="M111.81,103.87l-2.6.06c-1.55-2.67,3.54-6.93,3.17-8.19-.77-2.65-5.39,2.38-5.85-.08-.79-4.23,8.48-5.26,9.03.11.34,3.38-4,4.49-3.75,8.1Z"/>
  <path class="cls-1" d="M130.76,56.42c5.36-1.2,5.71,6,1.35,6.69-3.5.55-5.73-5.7-1.35-6.69Z"/>
  <path class="cls-1" d="M159.32,58.52c4.14-1.22,6.2,5.52,1.88,6.71-3.96,1.09-6.04-5.48-1.88-6.71Z"/>
  <path class="cls-1" d="M184.72,56.93c4-.61,4.42,6.22.41,6.22-3.48,0-3.92-5.68-.41-6.22Z"/>
  <path class="cls-1" d="M201.61,140.01c3.1-.28,4.16,5.29.94,5.72-4.68.62-4.3-5.42-.94-5.72Z"/>
  <path class="cls-1" d="M166.7,194.5c3.47-.32,3.66,5.3.36,5.6s-4-5.27-.36-5.6Z"/>
  <path class="cls-1" d="M183.16,144.22c-.18-.25-1.41.26-.94-1.15,6.38-.41,2.43,4.55,1.31,7.93-3.31-.78.25-5.92-.38-6.78Z"/>
  <path class="cls-1" d="M105.33,112.5c3.27-.3,3.55,6.17-1.05,4.56-2.18-.76-1.26-4.34,1.05-4.56Z"/>
  <path class="cls-1" d="M198.54,129.92c.88.56.76,3.07-.82,3.54-3.91,1.16-2.43-5.61.82-3.54Z"/>
  <path class="cls-1" d="M176.79,179.43c-1.39,1.37-3.47-.15-3.03-1.69.52-1.81,5.48-.73,3.03,1.69Z"/>
  <polygon class="cls-1" points="208.08 91.28 207.64 93.64 204.97 93.87 205.47 90.92 208.08 91.28"/>
  <path class="cls-1" d="M150.52,54.15c-.92-.65-.42-4.64,2.1-2.9,1.78,1.23-.52,4.02-2.1,2.9Z"/>
  <path class="cls-1" d="M203.86,102.91c1.44,2.01-2.55,3.84-3.12,1.79-.53-1.9,2.33-2.89,3.12-1.79Z"/>
  <path class="cls-1" d="M153.4,195.04c1.9.16,1.39,3.84-.47,3.54-1.96-.32-1.61-3.71.47-3.54Z"/>
  <path class="cls-1" d="M216.93,114.55c.79-.24,1.97-.12,2.27.79l-.74,2.31c-1.66-.12-3.72-2.43-1.54-3.1Z"/>
  <path class="cls-1" d="M120.15,104c2.2-.59,2.26,2.72.95,3.09-1.85.52-3.43-2.43-.95-3.09Z"/>
  <path class="cls-1" d="M116.35,175.05c2.87,0,4.56,3.39,2.13,5.59-4.48,4.06-7.7-5.58-2.13-5.59Z"/>
  <path class="cls-1" d="M201.64,201.87c2.92-.81,3.86,3.39,1.36,4.08-2.92.81-3.86-3.39-1.36-4.08Z"/>
</svg>