<?xml version="1.0" encoding="UTF-8"?>
<svg id="Layer_1" data-name="Layer 1" xmlns="http://www.w3.org/2000/svg" viewBox="0 0 320 320">
  <defs>
    <style>
      .cls-1 {
        fill: #ed1c24;
      }
    </style>
  </defs>
  <rect class="cls-1" y="0" width="320" height="320"/>
  <path d="M43.61,169.95l43.07-29.05c2.68,5.59,5.6,10.7,10.24,14.89,3.77,3.41,8.84,6.86,13.79,8.05-12.42-15.77-16.17-38.81-9.28-57.74,5.57-15.29,15.95-27.12,27.45-38.21,8.18-7.9,17.52-14.49,20.8-26.06s1.62-24.33-5.54-33.62c6.96-.12,13.98,4.53,19.03,9.03,10.67,9.5,13.48,23.26,12.2,37.11-.07.64-1.98-1.03-2.2-1.22-1.1-.94-2.06-2.25-3.17-3.18-2.17-1.82-5.16-3.4-8.05-3.29,4.48,13.53,2.34,26.05-5.27,37.82-10,15.47-25.04,25.13-31.34,43.1-6.77,19.33-5.03,46.09,12.86,58.92.37.27,2.78,1.97,3,1.75-3.97-11.77-5.72-24.11-1.23-36.01,7.87-20.85,28.26-31.52,39.24-49.84,6.17-10.3,7.45-24.61,3.71-35.96,10.03,3.64,18.84,11.5,22.7,21.6,3.26,8.54,3.98,17.45,1.21,26.25l-3.18-4.51c-2.82-3.39-6.23-6.46-10.73-7.21,2.66,9.75,4.82,20.21.7,29.87-8.18,19.14-29.93,27.54-38.32,46.62-3.2,7.28-3.5,14.9-2.08,22.67.57,3.13,1.86,6.08,2.37,9.23-18.29,3.47-18.11,31.42-.2,35.48,20.81,4.71,30.64-22.75,13.54-32.59-.93-.54-5-1.93-5.16-2.16-1.25-1.71.3-8.57,1.09-10.62,2.95-7.69,13.86-12.57,20.24-17.35,17.01-12.74,32.33-31.52,28.08-54.3l63.19,41.75v13.18l-115.66,96.8v14.65l.49.25,115.17-96.55v14.65l-116.51,97.66-116.26-97.66v-44.19Z"/>
</svg>