<?xml version="1.0" encoding="UTF-8"?>
<svg id="Layer_1" data-name="Layer 1" xmlns="http://www.w3.org/2000/svg" viewBox="0 0 320 320">
  <defs>
    <style>
      .cls-1 {
        fill: #fcee21;
      }
    </style>
  </defs>
  <rect class="cls-1" y="0" width="320" height="320"/>
  <path d="M295.22,185.08s-37.4-2.51-74.41,13.13c6.94-8.11,13.74-17.14,19.88-27.13,30.6-49.82,33.35-103.76,33.35-103.76,0,0-46.87,26.84-77.48,76.65-4.5,7.32-8.32,14.72-11.7,22.03,2.06-12.23,3.42-25.36,3.42-39.1,0-63.83-28.28-115.59-28.28-115.59,0,0-28.27,51.75-28.27,115.59,0,13.75,1.36,26.87,3.42,39.1-3.38-7.31-7.21-14.71-11.7-22.03-30.61-49.82-77.48-76.65-77.48-76.65,0,0,2.75,53.95,33.35,103.76,6.15,10,12.94,19.02,19.88,27.13-37.03-15.64-74.42-13.13-74.42-13.13,0,0,22.6,28.16,59.75,43.98,14.17,6.03,28.4,9.38,40.6,11.23-5.76.43-11.9,1.27-18.15,2.8-27.04,6.61-45.82,23.15-45.82,23.15,0,0,25.05,5.81,52.1-.8,17.53-4.29,31.49-12.7,39.21-18.12l-6.46,51.66c-.3,2.45.38,4.92,1.88,6.79,1.5,1.86,3.66,2.93,5.93,2.93h12.37c2.28,0,4.43-1.07,5.94-2.93,1.5-1.86,2.18-4.33,1.88-6.79l-6.46-51.66c7.72,5.42,21.67,13.82,39.2,18.11,27.05,6.62,52.1.8,52.1.8,0,0-18.78-16.54-45.82-23.15-6.25-1.53-12.39-2.38-18.15-2.8,12.2-1.85,26.43-5.2,40.6-11.23,37.14-15.81,59.75-43.98,59.75-43.98Z"/>
</svg>